<svg width="56" height="56" viewBox="0 0 56 56" fill="none" xmlns="http://www.w3.org/2000/svg">
<circle cx="28" cy="28" r="28" fill="#F3FBF8"/>
<path d="M32.4722 21H33.9217C35.1292 21 36.1392 20.1395 36.3712 19H34.9217C33.7147 19 32.7047 19.8605 32.4722 21Z" fill="#09A66D"/>
<path d="M21 16.5C21.0495 16.5 21.0975 16.506 21.147 16.5075L21.498 12.9975C21.5 12.703 21.297 12.5 21.0475 12.5H20.953C20.703 12.5 20.5 12.703 20.5 12.9525L20.8535 16.5075C20.9025 16.506 20.9505 16.5 21 16.5Z" fill="#09A66D"/>
<path d="M17 27C17 26.8295 17.0175 26.663 17.045 26.5H16V26.8425C16.3745 27.021 16.713 27.262 17 27.555V27Z" fill="#09A66D"/>
<path d="M16.5951 14.7781L18.3056 17.2961C18.4396 17.2096 18.5781 17.1296 18.7206 17.0561L17.6921 14.2276C17.6846 14.2076 17.6771 14.1891 17.6676 14.1711C17.5971 14.0301 17.4851 13.9326 17.3456 13.8866C17.2061 13.8401 17.0576 13.8511 16.9271 13.9166L16.8021 13.9791C16.5316 14.1141 16.4216 14.4441 16.5571 14.7146C16.5681 14.7346 16.5811 14.7571 16.5951 14.7781Z" fill="#09A66D"/>
<path d="M18.691 25.5H24.26L24.916 22.352C24.9715 22.084 25 21.8095 25 21.536C25 19.2945 23.2055 17.5 21 17.5C18.7945 17.5 17 19.2945 17 21.5C17 21.8095 17.0285 22.084 17.084 22.352L17.662 25.125C18.212 24.44 19.055 24 20 24V25C19.4975 25 19.043 25.1925 18.691 25.5ZM22.5 19.5H23.5V20.5H22.5V19.5ZM22.5 21.5H23.5V22.5H22.5V21.5ZM22.5 23.5H23.5V24.5H22.5V23.5Z" fill="#09A66D"/>
<path d="M15.5002 29.5H16.9497C16.7172 28.3605 15.7077 27.5 14.5002 27.5H13.0507C13.2827 28.6395 14.2927 29.5 15.5002 29.5Z" fill="#09A66D"/>
<path d="M25.4055 14.7765C25.4185 14.7565 25.432 14.7345 25.443 14.712C25.5775 14.4435 25.4675 14.1135 25.197 13.9785L25.072 13.916C24.941 13.851 24.7935 13.8395 24.6535 13.886C24.5145 13.9325 24.402 14.03 24.3365 14.161C24.3225 14.189 24.3145 14.2075 24.3075 14.2265L23.279 17.055C23.4215 17.1285 23.56 17.2085 23.6945 17.295L25.4055 14.7765Z" fill="#09A66D"/>
<path d="M24.4921 35.5H38.5001V32.5H23.8261C24.2676 33.4285 24.4916 34.449 24.4921 35.5ZM36.5001 33.5H37.5001V34.5H36.5001V33.5Z" fill="#09A66D"/>
<path d="M23.2316 39.5H37.0001C37.8271 39.5 38.5001 38.827 38.5001 38V36.5H24.4281C24.2686 37.6015 23.8476 38.623 23.2316 39.5ZM36.5001 37.5H37.5001V38.5H36.5001V37.5Z" fill="#09A66D"/>
<path d="M18.071 26.5C18.029 26.661 18 26.8265 18 27V27.5H38.5H39H40.5V26.5H18.071Z" fill="#09A66D"/>
<path d="M18 29.9335C18.1005 29.909 18.201 29.8835 18.2925 29.844C19.8175 29.1915 21.5925 29.5835 22.7055 30.821C22.8995 31.0365 23.0735 31.2655 23.237 31.4995H38.5V28.4995H18V29.9335ZM36.5 29.5H37.5V30.5H36.5V29.5Z" fill="#09A66D"/>
<path d="M21.9625 31.4899C21.1485 30.5849 19.801 30.2854 18.686 30.7634C18.4715 30.8549 18.2395 30.9179 18 30.9564V31.8979C18.4965 31.7129 18.968 31.3234 19.147 31.1454L19.8535 31.8534C19.7365 31.9709 18.6735 32.9999 17.5 32.9999C16.3265 32.9999 15.2635 31.9709 15.1465 31.8534L15.853 31.1454C16.032 31.3229 16.5035 31.7124 17 31.8979V30.4999H15.5C15.3305 30.4999 15.1655 30.4839 15.0025 30.4604C14.3015 30.5104 13.5605 30.9024 13.0145 31.5154C12.038 32.6139 11.5 34.0284 11.5 35.4999C11.5 37.1464 12.154 38.6819 13.3405 39.8239C14.527 40.9654 16.08 41.5549 17.739 41.4954C20.8295 41.3759 23.3575 38.8619 23.4945 35.7724C23.564 34.1869 23.02 32.6659 21.9625 31.4899ZM17.5 40.4999C14.743 40.4999 12.5 38.2569 12.5 35.4999H13.5C13.5 37.7054 15.2945 39.4999 17.5 39.4999V40.4999Z" fill="#09A66D"/>
<path d="M36.3854 25.5C36.1464 24.571 35.6899 23.7115 35.0409 22.99C34.2264 22.085 32.8789 21.7865 31.7639 22.2635C31.6789 22.3 31.5899 22.3305 31.4999 22.359V18C31.4999 17.173 32.1729 16.5 32.9999 16.5H33.4999V15.5H32.9999C31.6214 15.5 30.4999 16.6215 30.4999 18V22.359C30.4099 22.3305 30.3209 22.3 30.2359 22.2635C29.1214 21.7865 27.7734 22.085 26.9589 22.99C26.3099 23.7115 25.8534 24.5705 25.6144 25.5H30.9999H36.3854ZM28.7534 23.069C28.7609 23.073 29.5179 23.5 30.9999 23.5C32.4819 23.5 33.2389 23.073 33.2464 23.069L33.7569 23.9285C33.7184 23.952 32.7844 24.5 30.9999 24.5C29.2154 24.5 28.2814 23.952 28.2424 23.9285L28.7534 23.069Z" fill="#09A66D"/>
</svg>
